<svg xmlns="http://www.w3.org/2000/svg" width="36.864" height="43.869" viewBox="0 0 36.864 43.869"><path d="M34.821,55.182c-.02-3.594,1.606-6.307,4.9-8.305a10.523,10.523,0,0,0-8.3-4.368c-3.477-.274-7.277,2.027-8.668,2.027-1.469,0-4.838-1.929-7.483-1.929C9.808,42.695,4,46.965,4,55.652A24.411,24.411,0,0,0,5.41,63.6c1.254,3.594,5.778,12.409,10.5,12.262,2.468-.059,4.211-1.753,7.424-1.753,3.114,0,4.73,1.753,7.483,1.753,4.76-.069,8.854-8.08,10.049-11.684-6.386-3.007-6.043-8.815-6.043-9ZM29.278,39.1A9.224,9.224,0,0,0,31.629,32a10.385,10.385,0,0,0-6.65,3.418,9.369,9.369,0,0,0-2.507,7.042C25.027,42.656,27.358,41.343,29.278,39.1Z" transform="translate(-4 -32)" fill="#fff"/></svg>