<svg xmlns="http://www.w3.org/2000/svg" width="30.644" height="35.022" viewBox="0 0 30.644 35.022"><path d="M10.124,19.7H7.388a.823.823,0,0,1-.821-.821V16.143a.823.823,0,0,1,.821-.821h2.736a.823.823,0,0,1,.821.821v2.736A.823.823,0,0,1,10.124,19.7Zm7.388-.821V16.143a.823.823,0,0,0-.821-.821H13.954a.823.823,0,0,0-.821.821v2.736a.823.823,0,0,0,.821.821H16.69A.823.823,0,0,0,17.511,18.879Zm6.567,0V16.143a.823.823,0,0,0-.821-.821H20.521a.823.823,0,0,0-.821.821v2.736a.823.823,0,0,0,.821.821h2.736A.823.823,0,0,0,24.078,18.879Zm-6.567,6.567V22.71a.823.823,0,0,0-.821-.821H13.954a.823.823,0,0,0-.821.821v2.736a.823.823,0,0,0,.821.821H16.69A.823.823,0,0,0,17.511,25.446Zm-6.567,0V22.71a.823.823,0,0,0-.821-.821H7.388a.823.823,0,0,0-.821.821v2.736a.823.823,0,0,0,.821.821h2.736A.823.823,0,0,0,10.944,25.446Zm13.133,0V22.71a.823.823,0,0,0-.821-.821H20.521a.823.823,0,0,0-.821.821v2.736a.823.823,0,0,0,.821.821h2.736A.823.823,0,0,0,24.078,25.446ZM30.644,7.661V31.739a3.284,3.284,0,0,1-3.283,3.283H3.283A3.284,3.284,0,0,1,0,31.739V7.661A3.284,3.284,0,0,1,3.283,4.378H6.567V.821A.823.823,0,0,1,7.388,0h2.736a.823.823,0,0,1,.821.821V4.378H19.7V.821A.823.823,0,0,1,20.521,0h2.736a.823.823,0,0,1,.821.821V4.378h3.283A3.284,3.284,0,0,1,30.644,7.661ZM27.361,31.328V10.944H3.283V31.328a.412.412,0,0,0,.41.41H26.951A.412.412,0,0,0,27.361,31.328Z" fill="#9b9b9b"/></svg>