<svg xmlns="http://www.w3.org/2000/svg" width="46.594" height="46.593" viewBox="0 0 46.594 46.593"><path d="M813.014,407.923v0h-39.7a3.416,3.416,0,0,0-3.438,3.358v39.869a3.418,3.418,0,0,0,3.438,3.362h39.7a3.424,3.424,0,0,0,3.451-3.362V411.281A3.422,3.422,0,0,0,813.014,407.923Zm-29.324,39.7h-6.911V425.389h6.911Zm.554-29.28a4.026,4.026,0,0,1-4.006,4.006h0a4.006,4.006,0,1,1,4.007-4.007Zm25.328,29.28h-6.9V436.811c0-2.578-.046-5.9-3.59-5.9-3.6,0-4.146,2.809-4.146,5.709v11h-6.9V425.389h6.627v3.038h.093a7.272,7.272,0,0,1,6.539-3.591c7,0,8.288,4.6,8.288,10.59Z" transform="translate(-769.872 -407.922)" fill="#0a66c2"/></svg>