<svg xmlns="http://www.w3.org/2000/svg" width="44.24" height="51.245" viewBox="0 0 44.24 51.245"><path d="M5.471,41.283c0-1.5.038-3.009-.008-4.512-.1-3.162.017-6.33-.057-9.5-.091-3.924-.01-7.843-.056-11.764a.4.4,0,0,1,.309-.442q1.781-.631,3.552-1.282c.86-.316,1.716-.647,2.579-.964,1.216-.448,2.436-.886,3.651-1.335.617-.228,1.221-.476,1.836-.705.686-.255,1.378-.493,2.063-.747,1.044-.388,2.085-.788,3.129-1.177,1.026-.381,2.057-.749,3.083-1.131.9-.336,1.794-.688,2.7-1.023.8-.3,1.612-.578,2.419-.874.746-.275,1.488-.561,2.233-.841.284-.107.571-.206.857-.311A.341.341,0,0,1,34,4.71c1.124.381,2.251.754,3.374,1.138.582.2,1.158.427,1.743.63.971.332,1.947.651,2.92.98.534.18,1.065.372,1.6.554l2.766.936c.717.242,1.437.479,2.156.719.349.117.414.211.415.617,0,.934-.025,1.869.01,2.8.041,1.1,0,2.2.061,3.3.07,1.316,0,2.631.048,3.946.049,1.339.006,2.68.066,4.016.056,1.233,0,2.464.047,3.693.049,1.165,0,2.333.065,3.5.05.961.013,1.921.043,2.881.043,1.427.024,2.855.072,4.281.034,1-.012,2,.046,2.992.1,1.688-.01,3.378.063,5.065.038.868-.016,1.738.053,2.6.075.953.025,1.9.044,2.853.012.584,0,.561-.55.719-.991.286-1.968.623-2.961.9-.6.168-1.187.369-1.783.55s-1.166.368-1.749.549q-1.09.336-2.181.668a.514.514,0,0,1-.138.018c-.651.02-1.3.016-1.955.062-1,.071-2,.02-2.992.056-1.089.042-2.177.1-3.266.108a4.613,4.613,0,0,0-.47.052,4.157,4.157,0,0,1-1.85-.3c-.778-.274-1.57-.511-2.351-.774-.873-.293-1.741-.6-2.614-.9-.563-.19-1.133-.363-1.7-.551-.79-.263-1.576-.538-2.367-.8-.738-.245-1.48-.476-2.218-.72-.565-.186-1.121-.392-1.691-.572-.677-.214-1.345-.461-2.021-.673-.985-.3-1.954-.663-2.932-.992-.471-.159-.948-.3-1.424-.448-.061-.018-.145-.006-.125-.1.014-.071.085-.075.136-.056a8.01,8.01,0,0,0,1.733.237c.587.076,1.177.15,1.769.2.628.056,1.255.138,1.881.2s1.254.147,1.883.2c.591.048,1.18.127,1.77.192l1.8.2,1.936.207c.609.063,1.219.121,1.828.186.719.078,1.438.164,2.157.244.442.05.884.1,1.327.146.794.074,1.585.18,2.378.256.591.056,1.177.144,1.771.187a7.84,7.84,0,0,1,.8.1c.364.066.65.064.642-.516-.021-1.612.036-3.225-.022-4.835-.052-1.428.021-2.859-.056-4.281-.066-1.251-.037-2.5-.038-3.749,0-2.269-.04-4.537-.081-6.8-.037-2.063.028-4.126-.05-6.187-.048-1.26.016-2.522-.052-3.777-.09-1.67-.024-3.34-.043-5.01,0-.355-.056-.7-.066-1.058,0-.209-.145-.309-.356-.308-.419,0-.826.112-1.244.142-.758.056-1.513.164-2.267.251-.534.062-1.068.128-1.6.189-.608.07-1.217.132-1.825.2-.663.078-1.325.168-1.988.245-.432.052-.865.1-1.3.146l-2.157.24-1.85.209c-.535.06-1.07.115-1.6.18s-1.084.157-1.626.2c-.266.024-.348.168-.386.387a.518.518,0,0,0,0,.084c-.019,1.8,0,3.6-.07,5.4-.059,1.521.021,3.043-.056,4.561-.056,1.093.018,2.186-.056,3.272-.059.9.01,1.794-.056,2.684-.085,1.185-.03,2.369-.044,3.553-.016,1.3-.056,2.593-.077,3.889-.015.763-.021,1.528-.034,2.292a.3.3,0,0,1-.253.336c-.488.138-.97.3-1.457.435-.714.2-1.413.448-2.13.645-.9.249-1.785.557-2.679.832-.688.216-1.383.417-2.076.622a6.672,6.672,0,0,0-.655.224c-.255.107-.336.066-.336-.21V41.284Z" transform="translate(-5.35 -4.666)" fill="#f13c00"/></svg>