<svg xmlns="http://www.w3.org/2000/svg" width="111.639" height="112.381" viewBox="0 0 111.639 112.381"><g transform="translate(2.5 2.5)"><path d="M-194.314,111.689H-279.29V19.153h92.536V105.84" transform="translate(279.29 -19.153)" fill="none" stroke="#fff" stroke-linecap="round" stroke-linejoin="round" stroke-width="5"/><line x2="44.454" transform="translate(23.042 13.162)" fill="none" stroke="#fff" stroke-linecap="round" stroke-linejoin="round" stroke-width="5" opacity="0.5"/><line x2="12.023" transform="translate(7.969 34.02)" fill="none" stroke="#fff" stroke-linecap="round" stroke-linejoin="round" stroke-width="5"/><line x2="8.71" transform="translate(7.969 47.703)" fill="none" stroke="#fff" stroke-linecap="round" stroke-linejoin="round" stroke-width="5"/><line x2="11.29" transform="translate(7.969 61.386)" fill="none" stroke="#fff" stroke-linecap="round" stroke-linejoin="round" stroke-width="5"/><line x1="15.061" transform="translate(68.591 34.02)" fill="none" stroke="#fff" stroke-linecap="round" stroke-linejoin="round" stroke-width="5"/><line x1="8.703" transform="translate(75.089 47.703)" fill="none" stroke="#fff" stroke-linecap="round" stroke-linejoin="round" stroke-width="5"/><line x1="12.338" transform="translate(71.376 61.386)" fill="none" stroke="#fff" stroke-linecap="round" stroke-linejoin="round" stroke-width="5"/><ellipse cx="25.17" cy="25.17" rx="25.17" ry="25.17" transform="translate(19.977 24.812)" fill="none" stroke="#fff" stroke-linecap="round" stroke-linejoin="round" stroke-width="5"/><line x2="3.468" y2="3.468" transform="translate(67.576 68.874)" fill="none" stroke="#fff" stroke-linecap="round" stroke-linejoin="round" stroke-width="5"/><rect width="7.781" height="40.734" rx="0.689" transform="translate(71.298 77.542) rotate(-45)" fill="none" stroke="#fff" stroke-linecap="round" stroke-linejoin="round" stroke-width="5"/><path d="M-262.843,44.263l13.332-13.332" transform="translate(301.324 12.384)" fill="none" stroke="#fff" stroke-linecap="round" stroke-linejoin="round" stroke-width="5" opacity="0.5"/><path d="M0,13.332,13.332,0" transform="translate(51.812 43.315) rotate(90)" fill="none" stroke="#fff" stroke-linecap="round" stroke-linejoin="round" stroke-width="5" opacity="0.5"/></g></svg>