<svg xmlns="http://www.w3.org/2000/svg" width="54.781" height="47.384" viewBox="0 0 54.781 47.384"><g transform="translate(1.5 1.5)"><path d="M-120.615,19.076h-24.043a5.555,5.555,0,0,0-5.547,5.549v11.1h-11.1a5.555,5.555,0,0,0-5.549,5.547V54.215A9.257,9.257,0,0,0-157.6,63.46h36.987a5.552,5.552,0,0,0,5.547-5.547V24.625A5.555,5.555,0,0,0-120.615,19.076Z" transform="translate(166.849 -19.076)" fill="none" stroke="#707070" stroke-linecap="round" stroke-linejoin="round" stroke-width="3"/><line y2="27.74" transform="translate(16.645 16.645)" fill="none" stroke="#707070" stroke-linecap="round" stroke-linejoin="round" stroke-width="3"/><line x2="8.774" transform="translate(22.506 30.515)" fill="none" stroke="#707070" stroke-linecap="round" stroke-linejoin="round" stroke-width="3"/><line x2="17.805" transform="translate(22.506 37)" fill="none" stroke="#707070" stroke-linecap="round" stroke-linejoin="round" stroke-width="3"/><path d="M-151.621,30.375-147.8,34.2l9.381-9.381" transform="translate(178.514 -14.678)" fill="none" stroke="#707070" stroke-linecap="round" stroke-linejoin="round" stroke-width="3"/></g></svg>