<svg xmlns="http://www.w3.org/2000/svg" width="58.891" height="50.907" viewBox="0 0 58.891 50.907"><g transform="translate(1.5 1.5)"><path d="M-116.945,19.076H-142.9a6,6,0,0,0-5.987,5.989V37.042H-160.86a6,6,0,0,0-5.989,5.987V57a9.992,9.992,0,0,0,9.981,9.979h39.923a5.993,5.993,0,0,0,5.987-5.987V25.065A6,6,0,0,0-116.945,19.076Z" transform="translate(166.849 -19.076)" fill="none" stroke="#fdfdfd" stroke-linecap="round" stroke-linejoin="round" stroke-width="3"/><line y2="29.941" transform="translate(17.965 17.966)" fill="none" stroke="#fdfdfd" stroke-linecap="round" stroke-linejoin="round" stroke-width="3"/><line x2="9.47" transform="translate(24.292 32.936)" fill="none" stroke="#fdfdfd" stroke-linecap="round" stroke-linejoin="round" stroke-width="3"/><line x2="19.218" transform="translate(24.292 39.936)" fill="none" stroke="#fdfdfd" stroke-linecap="round" stroke-linejoin="round" stroke-width="3"/><g transform="translate(29.65 8.928)"><line x2="14.94" transform="translate(0 7.47)" fill="none" stroke="#fff" stroke-linecap="round" stroke-width="3"/><line x2="14.94" transform="translate(7.471 0) rotate(90)" fill="none" stroke="#fff" stroke-linecap="round" stroke-width="3"/></g></g></svg>